:FULLY-SPECIFIED
:FORCE-ALL-JOINTS-BE-3DOF
:DEGREES
1937
root 5.91502 13.6352 27.9099 1055.72 70.0657 332.875
lfemur -60.8593 2.93476 0.827255
ltibia 60.4195 0 0
lfoot 0.832116 -0.498474 0
ltoes -26.7271 0 0
rfemur -5.31388 7.5484 19.5806
rtibia 67.4638 0 0
rfoot -25.6819 -21.3937 0
rtoes -28.8398 0 0
lowerback 13.6955 5.23356 4.33868
upperback -0.641965 8.00189 3.1956
thorax -8.22654 3.78655 -0.649015
lowerneck -0.4016 15.4769 7.13785
upperneck 6.56714 21.1805 -7.40551
head 3.57112 10.5105 -2.35364
lclavicle 4.1208e-15 -3.10107e-15 0
lhumerus 77.077 -29.2857 43.6255
lradius 58.8047 0 0
lwrist 5.81792 0 0
lhand -11.5323 34.7455 0
lfingers 7.12502 0 0
lthumb 17.7351 61.6109 0
rclavicle 4.56303e-14 -1.13307e-14 0
rhumerus -37.3007 30.263 -75.0582
rradius 89.8662 0 0
rwrist -33.7495 0 0
rhand -11.6426 -403.066 0
rfingers 7.12502 0 0
rthumb 15.3744 288.453 0
1938
root 5.80277 13.6413 27.9313 1055.12 70.6703 332.224
lfemur -60.7977 1.80394 1.14582
ltibia 59.7865 0 0
lfoot 0.593933 -0.667554 0
ltoes -26.4795 0 0
rfemur -5.76566 8.55413 19.7353
rtibia 68.2394 0 0
rfoot -25.5421 -20.8519 0
rtoes -29.4703 0 0
lowerback 13.6601 5.23926 4.21815
upperback -0.649551 7.99159 3.2243
thorax -8.23566 3.78773 -0.548666
lowerneck -0.136704 15.4204 7.22214
upperneck 6.20519 21.1032 -7.57858
head 3.44095 10.4812 -2.45522
lclavicle 5.39451e-15 -1.93818e-15 0
lhumerus 78.102 -30.9219 40.7791
lradius 61.3886 0 0
lwrist 8.61713 0 0
lhand -11.4564 34.7642 0
lfingers 7.12502 0 0
lthumb 18.6091 61.4378 0
rclavicle 4.46934e-14 -1.11319e-14 0
rhumerus -36.1585 31.3648 -74.7251
rradius 90.2613 0 0
rwrist -33.2691 0 0
rhand -11.4575 -403.097 0
rfingers 7.12502 0 0
rthumb 15.7193 288.57 0
1939
root 5.6853 13.65 27.9573 1054.34 71.2774 331.412
lfemur -60.7361 0.67313 1.46438
ltibia 59.1535 0 0
lfoot 0.355751 -0.836635 0
ltoes -26.2319 0 0
rfemur -6.21743 9.55986 19.8901
rtibia 69.015 0 0
rfoot -25.4022 -20.31 0
rtoes -30.1008 0 0
lowerback 13.6678 5.24489 4.10145
upperback -0.604554 7.98659 3.29686
thorax -8.21812 3.79415 -0.406967
lowerneck -0.279369 15.456 7.08333
upperneck 6.18529 21.1464 -7.60244
head 3.44908 10.4959 -2.4309
lclavicle 6.66823e-15 -7.75288e-16 0
lhumerus 79.1271 -32.5581 37.9328
lradius 63.9725 0 0
lwrist 11.4163 0 0
lhand -11.3804 34.7828 0
lfingers 7.12502 0 0
lthumb 19.4831 61.2647 0
rclavicle 4.37566e-14 -1.09332e-14 0
rhumerus -35.0163 32.4666 -74.3921
rradius 90.6564 0 0
rwrist -32.7886 0 0
rhand -11.2723 -403.128 0
rfingers 7.12502 0 0
rthumb 16.0641 288.688 0
1940
root 5.563 13.6587 27.982 1053.68 71.9672 330.707
lfemur -60.6745 -0.457683 1.78294
ltibia 58.5204 0 0
lfoot 0.117569 -1.00572 0
ltoes -25.9843 0 0
rfemur -6.66921 10.5656 20.0448
rtibia 69.7906 0 0
rfoot -25.2623 -19.7681 0
rtoes -30.7314 0 0
lowerback 13.7464 5.37934 4.11913
upperback -0.705862 8.16663 3.17839
thorax -8.34771 3.87081 -0.589473
lowerneck -0.0613573 15.2836 7.36996
upperneck 6.08294 20.9206 -7.69307
head 3.40575 10.3945 -2.52945
lclavicle 7.94194e-15 3.87604e-16 0
lhumerus 80.1521 -34.1944 35.0864
lradius 66.5563 0 0
lwrist 14.2155 0 0
lhand -11.3045 34.8015 0
lfingers 7.12502 0 0
lthumb 20.3572 61.0916 0
rclavicle 4.28197e-14 -1.07344e-14 0
rhumerus -33.8742 33.5685 -74.0591
rradius 91.0516 0 0
rwrist -32.3081 0 0
rhand -11.0872 -403.159 0
rfingers 7.12502 0 0
rthumb 16.409 288.805 0
1941
root 5.43214 13.6735 28.014 1053.04 72.6785 329.899
lfemur -60.613 -1.5885 2.1015
ltibia 57.8874 0 0
lfoot -0.120613 -1.1748 0
ltoes -25.7367 0 0
rfemur -7.12099 11.5713 20.1995
rtibia 69.5871 0 0
rfoot -25.1224 -19.2263 0
rtoes -31.3619 0 0
lowerback 13.7064 5.37191 3.89044
upperback -0.786957 8.12622 3.21532
thorax -8.45162 3.85889 -0.419759
lowerneck 0.0875733 15.2924 7.32644
upperneck 6.00172 20.9413 -7.73968
head 3.35972 10.4085 -2.55164
lclavicle 9.21565e-15 1.5505e-15 0
lhumerus 81.1772 -35.8306 32.2401
lradius 69.1402 0 0
lwrist 17.0148 0 0
lhand -11.2286 34.8202 0
lfingers 7.12502 0 0
lthumb 21.2312 60.9184 0
rclavicle 4.18828e-14 -1.05356e-14 0
rhumerus -32.732 34.6703 -73.7261
rradius 91.4467 0 0
rwrist -31.8276 0 0
rhand -10.902 -403.191 0
rfingers 7.12502 0 0
rthumb 16.7538 288.923 0
1942
root 5.29839 13.6929 28.0462 1052.25 73.4429 328.994
lfemur -60.5514 -2.71931 2.42006
ltibia 57.4996 0 0
lfoot -0.358795 -1.34388 0
ltoes -25.4891 0 0
rfemur -7.57277 12.577 20.3542
rtibia 69.3836 0 0
rfoot -24.9825 -18.6844 0
rtoes -31.9924 0 0
lowerback 13.704 5.39532 3.72839
upperback -0.822122 8.12795 3.17044
thorax -8.50376 3.86354 -0.381356
lowerneck -0.0837178 15.1109 7.23887
upperneck 5.91251 20.6615 -7.56508
head 3.31155 10.2685 -2.50523
lclavicle 1.04894e-14 2.71339e-15 0
lhumerus 82.2022 -37.4668 29.3937
lradius 71.7241 0 0
lwrist 19.814 0 0
lhand -11.1527 34.8388 0
lfingers 7.12502 0 0
lthumb 22.1052 60.7453 0
rclavicle 4.0946e-14 -1.03368e-14 0
rhumerus -31.5898 35.7721 -73.393
rradius 91.8418 0 0
rwrist -31.3471 0 0
rhand -10.7168 -403.222 0
rfingers 7.12502 0 0
rthumb 17.0987 289.04 0
